<?xml version="1.0" encoding="UTF-8" standalone="no"?>
<!-- Copyright (c) 2025 Jeffrey H. Johnson -->
<!-- SPDX-License-Identifier: MIT -->
<svg
   version="1.1"
   id="_x32_"
   viewBox="0 0 512 512"
   xml:space="preserve"
   style="background-color: transparent;"
   sodipodi:docname="blog-light.svg"
   inkscape:version="1.4.2 (ebf0e940d0, 2025-05-08)"
   xmlns:inkscape="http://www.inkscape.org/namespaces/inkscape"
   xmlns:sodipodi="http://sodipodi.sourceforge.net/DTD/sodipodi-0.dtd"
   xmlns="http://www.w3.org/2000/svg"
   xmlns:svg="http://www.w3.org/2000/svg"><defs
   id="defs2" /><sodipodi:namedview
   id="namedview2"
   pagecolor="#505050"
   bordercolor="#eeeeee"
   borderopacity="1"
   inkscape:showpageshadow="0"
   inkscape:pageopacity="0"
   inkscape:pagecheckerboard="0"
   inkscape:deskcolor="#d1d1d1"
   inkscape:zoom="2.2792969"
   inkscape:cx="255.78063"
   inkscape:cy="256"
   inkscape:window-width="2560"
   inkscape:window-height="1370"
   inkscape:window-x="0"
   inkscape:window-y="0"
   inkscape:window-maximized="1"
   inkscape:current-layer="g2" />
<style
   type="text/css"
   id="style1">
<![CDATA[
	.st0{fill:currentColor;}
]]>
</style>
<g
   id="g2">
	<path
   class="st0"
   d="M 422.002,6.017 C 315.33,20.736 213.205,220.861 162.939,313.486 c -12.641,23.297 9.422,35.406 22.422,13.125 9.344,-16.016 32.109,-62.5 44.422,-60.094 58.797,9.797 90.156,-28.547 67.891,-52.672 74.797,1.531 111.875,-39.609 90.656,-64.609 22.313,7.063 55.078,6.031 83.766,-9.609 C 533.33,106.22 529.627,-8.827 422.002,6.017 Z"
   id="path1"
   sodipodi:nodetypes="cccccccc"
   style="fill:#e0d3af;fill-opacity:1" />
	<path
   class="st0"
   d="m 409.189,207.048 c -9.719,9.141 -27.031,22.141 -41.547,27.813 v 207.062 c -0.016,4.609 -1.781,8.531 -4.781,11.563 -3.031,3 -6.953,4.766 -11.547,4.781 H 65.361 c -4.594,-0.016 -8.531,-1.781 -11.563,-4.781 -3,-3.031 -4.766,-6.953 -4.781,-11.563 V 155.986 c 0.016,-4.594 1.781,-8.531 4.781,-11.563 3.031,-3 6.969,-4.766 11.563,-4.781 h 160.391 c 11.234,-17.125 22.734,-33.578 34.484,-49.016 H 65.361 C 47.392,90.61 30.892,97.97 19.142,109.767 7.361,121.517 -0.014,138.017 0.001,155.986 v 285.937 c -0.016,17.969 7.359,34.469 19.141,46.234 11.75,11.781 28.25,19.156 46.219,19.141 h 285.953 c 17.953,0.016 34.453,-7.359 46.219,-19.141 11.781,-11.766 19.156,-28.266 19.141,-46.234 V 206.017 c 0,0 -2.672,-3.5 -7.485,1.031 z"
   id="path2"
   sodipodi:nodetypes="cccccccccccccccccccccccc"
   style="fill:#e0d3af;fill-opacity:1" />
</g>
</svg>
