<?xml version="1.0" encoding="UTF-8" standalone="no"?>
<svg
   fill="currentColor"
   viewBox="0 0 24 24"
   role="img"
   style="background-color: transparent;"
   version="1.1"
   id="svg1"
   sodipodi:docname="github-light.svg"
   inkscape:version="1.4.2 (ebf0e940d0, 2025-05-08)"
   xmlns:inkscape="http://www.inkscape.org/namespaces/inkscape"
   xmlns:sodipodi="http://sodipodi.sourceforge.net/DTD/sodipodi-0.dtd"
   xmlns="http://www.w3.org/2000/svg"
   xmlns:svg="http://www.w3.org/2000/svg">
  <defs
     id="defs1" />
  <sodipodi:namedview
     id="namedview1"
     pagecolor="#505050"
     bordercolor="#eeeeee"
     borderopacity="1"
     inkscape:showpageshadow="0"
     inkscape:pageopacity="0"
     inkscape:pagecheckerboard="0"
     inkscape:deskcolor="#d1d1d1"
     inkscape:zoom="48.625"
     inkscape:cx="12.010283"
     inkscape:cy="12"
     inkscape:window-width="2560"
     inkscape:window-height="1370"
     inkscape:window-x="0"
     inkscape:window-y="0"
     inkscape:window-maximized="1"
     inkscape:current-layer="svg1" />
  <path
     d="m 12,0.297 c -6.63,0 -12,5.373 -12,12 0,5.303 3.438,9.8 8.205,11.385 0.6,0.113 0.82,-0.258 0.82,-0.577 0,-0.285 -0.01,-1.04 -0.015,-2.04 C 5.672,21.789 4.968,19.455 4.968,19.455 4.422,18.07 3.633,17.7 3.633,17.7 2.546,16.956 3.717,16.971 3.717,16.971 c 1.205,0.084 1.838,1.236 1.838,1.236 1.07,1.835 2.809,1.305 3.495,0.998 C 9.158,18.429 9.467,17.9 9.81,17.6 7.145,17.3 4.344,16.268 4.344,11.67 4.344,10.36 4.809,9.29 5.579,8.45 5.444,8.147 5.039,6.927 5.684,5.274 c 0,0 1.005,-0.322 3.3,1.23 0.96,-0.267 1.98,-0.399 3,-0.405 1.02,0.006 2.04,0.138 3,0.405 2.28,-1.552 3.285,-1.23 3.285,-1.23 0.645,1.653 0.24,2.873 0.12,3.176 0.765,0.84 1.23,1.91 1.23,3.22 0,4.61 -2.805,5.625 -5.475,5.92 0.42,0.36 0.81,1.096 0.81,2.22 0,1.606 -0.015,2.896 -0.015,3.286 0,0.315 0.21,0.69 0.825,0.57 C 20.565,22.092 24,17.592 24,12.297 c 0,-6.627 -5.373,-12 -12,-12"
     id="path1"
     sodipodi:nodetypes="cscscccccccscccccccscsscsc"
     style="fill:#e0d3af;fill-opacity:1" />
</svg>
